<?xml version="1.0" encoding="UTF-8"?>
<svg xmlns="http://www.w3.org/2000/svg" xmlns:xlink="http://www.w3.org/1999/xlink" width="25pt" height="25pt" viewBox="0 0 25 25" version="1.1">
<g id="surface1">
<path style=" stroke:none;fill-rule:nonzero;fill:rgb(0%,0%,0%);fill-opacity:1;" d="M 18.8125 15.269531 C 16.125 15.269531 13.945312 17.449219 13.945312 20.132812 C 13.945312 22.820312 16.125 25 18.8125 25 C 21.5 25 23.679688 22.820312 23.679688 20.132812 C 23.679688 17.449219 21.5 15.269531 18.8125 15.269531 Z M 20.941406 20.96875 L 16.683594 20.96875 C 16.222656 20.96875 15.847656 20.59375 15.847656 20.132812 C 15.847656 19.671875 16.222656 19.300781 16.683594 19.300781 L 20.941406 19.300781 C 21.402344 19.300781 21.777344 19.671875 21.777344 20.132812 C 21.777344 20.59375 21.402344 20.96875 20.941406 20.96875 Z M 10.921875 12.773438 C 14.46875 12.773438 15.746094 9.21875 16.082031 6.300781 C 16.492188 2.707031 14.792969 0 10.921875 0 C 7.050781 0 5.351562 2.707031 5.761719 6.300781 C 6.097656 9.21875 7.371094 12.773438 10.921875 12.773438 Z M 18.679688 14.25 C 18.792969 14.25 18.90625 14.253906 19.019531 14.261719 C 18.851562 14.019531 18.65625 13.808594 18.425781 13.636719 C 17.746094 13.128906 16.863281 12.960938 16.082031 12.652344 C 15.703125 12.503906 15.363281 12.355469 15.042969 12.1875 C 13.964844 13.371094 12.558594 13.988281 10.921875 13.988281 C 9.285156 13.988281 7.878906 13.371094 6.800781 12.1875 C 6.480469 12.355469 6.140625 12.503906 5.761719 12.652344 C 4.980469 12.960938 4.097656 13.128906 3.414062 13.636719 C 2.234375 14.515625 1.929688 16.496094 1.691406 17.847656 C 1.496094 18.960938 1.363281 20.097656 1.324219 21.230469 C 1.292969 22.109375 1.726562 22.230469 2.460938 22.496094 C 3.378906 22.828125 4.328125 23.074219 5.28125 23.277344 C 7.128906 23.664062 9.027344 23.964844 10.921875 23.976562 C 11.839844 23.972656 12.757812 23.898438 13.671875 23.777344 C 12.996094 22.800781 12.597656 21.613281 12.597656 20.332031 C 12.597656 16.980469 15.328125 14.25 18.679688 14.25 Z M 18.679688 14.25 "/>
</g>
</svg>
